<?xml version="1.0" encoding="UTF-8" standalone="no"?>
<!DOCTYPE svg PUBLIC "-//W3C//DTD SVG 1.1//EN" "http://www.w3.org/Graphics/SVG/1.1/DTD/svg11.dtd">
<svg version="1.1" xmlns="http://www.w3.org/2000/svg" xmlns:xlink="http://www.w3.org/1999/xlink" preserveAspectRatio="xMidYMid meet" viewBox="0.47739776993466876 -0.8931187404073739 184.0452091324815 44.138552867210564" width="180.05" height="40.14"><defs><path d="M15.41 0.12L16.01 0.15L16.59 0.18L17.15 0.22L17.68 0.27L18.2 0.32L18.71 0.39L19.19 0.47L19.66 0.55L20.11 0.65L20.55 0.75L20.97 0.87L21.37 0.99L21.76 1.13L22.14 1.27L22.51 1.42L22.86 1.59L23.2 1.76L23.53 1.95L23.85 2.14L24.36 2.5L24.85 2.88L25.32 3.29L25.76 3.72L26.18 4.18L26.58 4.66L26.95 5.17L27.3 5.7L27.62 6.25L27.92 6.83L28.19 7.42L28.44 8.03L28.66 8.67L28.86 9.32L29.03 9.99L29.18 10.68L29.3 11.38L29.39 12.1L29.46 12.83L29.5 13.58L29.51 14.34L29.48 15.65L29.38 16.9L29.22 18.09L28.99 19.22L28.69 20.3L28.33 21.31L27.9 22.26L27.4 23.16L26.84 23.99L26.21 24.76L25.52 25.47L24.76 26.11L23.93 26.69L23.03 27.2L22.07 27.65L21.04 28.03L19.94 28.34L18.78 28.58L17.54 28.76L16.24 28.86L14.88 28.9L1.48 28.9L1.48 27.02L2.24 27.02L2.67 27.02L3.07 27.02L3.44 27.01L3.77 26.99L4.07 26.97L4.33 26.95L4.57 26.91L4.79 26.87L4.97 26.81L5.13 26.75L5.27 26.68L5.39 26.59L5.49 26.49L5.57 26.38L5.64 26.25L5.69 26.11L5.73 25.96L5.76 25.78L5.77 25.59L5.78 25.38L5.78 25.15L5.78 3.86L5.78 3.63L5.77 3.42L5.76 3.22L5.73 3.05L5.69 2.89L5.64 2.75L5.57 2.63L5.49 2.51L5.39 2.41L5.27 2.33L5.13 2.25L4.97 2.19L4.79 2.14L4.57 2.09L4.33 2.06L4.07 2.03L3.77 2.01L3.44 2L3.07 1.99L2.67 1.98L2.24 1.98L1.48 1.98L1.48 0.11L14.16 0.11L14.8 0.11L15.41 0.12ZM12.09 1.99L11.72 2.01L11.4 2.04L11.13 2.1L10.9 2.18L10.72 2.3L10.57 2.44L10.46 2.62L10.37 2.85L10.31 3.11L10.28 3.43L10.26 3.79L10.25 4.21L10.25 24.83L10.26 25.25L10.28 25.62L10.31 25.93L10.37 26.19L10.46 26.41L10.57 26.59L10.72 26.73L10.9 26.83L11.13 26.91L11.4 26.97L11.72 27L12.09 27.02L12.52 27.02L15.24 27.02L16.65 26.96L17.93 26.76L19.08 26.43L20.11 25.95L21.01 25.33L21.8 24.56L22.47 23.63L23.03 22.54L23.48 21.28L23.82 19.85L24.06 18.25L24.2 16.47L24.25 14.5L24.2 12.56L24.04 10.79L23.78 9.2L23.41 7.78L22.93 6.52L22.32 5.42L21.6 4.49L20.76 3.71L19.79 3.08L18.7 2.59L17.47 2.25L16.1 2.05L14.6 1.98L12.52 1.98L12.09 1.99Z" id="b3Y1HBB8Pe"></path><path d="M47.91 40.25L47.91 38.37C47.43 38.37 47.17 38.37 47.11 38.37C43.92 38.37 43.56 38.17 43.56 36.5C43.56 34.37 43.56 17.33 43.56 15.2C43.56 13.53 43.92 13.33 47.11 13.33C47.17 13.33 47.43 13.33 47.91 13.33L47.91 11.45L34.71 11.45L34.71 13.33C35.19 13.33 35.46 13.33 35.51 13.33C38.74 13.33 39.1 13.53 39.1 15.2C39.1 17.33 39.1 34.37 39.1 36.5C39.1 38.17 38.74 38.37 35.51 38.37C35.46 38.37 35.19 38.37 34.71 38.37L34.71 40.25L47.91 40.25Z" id="a623oJKBpu"></path><path d="M78.78 25.29L78.88 25.53L78.98 25.75L79.07 25.96L79.16 26.15L79.25 26.33L79.34 26.49L79.42 26.64L79.51 26.77L79.6 26.89L79.7 27L79.79 27.1L79.89 27.19L80 27.26L80.12 27.33L80.24 27.38L80.37 27.43L80.51 27.47L80.66 27.51L80.82 27.53L80.99 27.55L81.18 27.57L81.38 27.58L81.59 27.58L81.82 27.58L82.58 27.58L82.58 29.46L70.22 29.46L70.22 27.58L71.89 27.58L72.07 27.58L72.24 27.58L72.4 27.57L72.56 27.55L72.72 27.54L72.86 27.52L73.01 27.49L73.14 27.47L73.28 27.44L73.4 27.4L73.52 27.36L73.63 27.33L73.73 27.28L73.83 27.24L73.92 27.19L74 27.13L74.08 27.08L74.14 27.02L74.2 26.96L74.25 26.9L74.29 26.83L74.32 26.77L74.35 26.69L74.36 26.62L74.36 26.55L74.36 26.52L74.36 26.5L74.36 26.47L74.36 26.44L74.35 26.42L74.35 26.39L74.34 26.35L74.34 26.32L74.33 26.29L74.32 26.25L74.31 26.22L74.3 26.18L74.29 26.14L74.28 26.09L74.26 26.05L74.25 26L74.23 25.95L74.21 25.9L74.19 25.85L74.17 25.79L74.15 25.73L74.13 25.67L74.1 25.61L74.07 25.54L74.05 25.47L71.89 20.13L61.32 20.13L60.01 23.64L59.98 23.71L59.95 23.79L59.93 23.86L59.9 23.94L59.88 24.01L59.86 24.08L59.84 24.15L59.82 24.22L59.8 24.29L59.78 24.36L59.76 24.43L59.75 24.5L59.73 24.57L59.72 24.63L59.71 24.7L59.7 24.76L59.69 24.83L59.68 24.89L59.67 24.95L59.66 25.01L59.66 25.07L59.65 25.13L59.65 25.19L59.65 25.25L59.65 25.31L59.65 25.49L59.67 25.66L59.7 25.82L59.73 25.98L59.78 26.13L59.84 26.27L59.9 26.4L59.98 26.53L60.07 26.65L60.17 26.76L60.28 26.87L60.39 26.97L60.52 27.06L60.66 27.14L60.81 27.22L60.97 27.29L61.14 27.35L61.32 27.4L61.52 27.45L61.72 27.49L61.93 27.52L62.15 27.55L62.38 27.57L62.63 27.58L62.88 27.58L63.68 27.58L63.68 29.46L53.11 29.46L53.11 27.58L53.67 27.58L53.9 27.58L54.12 27.57L54.33 27.55L54.52 27.53L54.71 27.49L54.89 27.45L55.06 27.39L55.22 27.32L55.37 27.24L55.52 27.14L55.66 27.03L55.8 26.9L55.94 26.76L56.07 26.59L56.21 26.41L56.34 26.21L56.47 25.99L56.61 25.74L56.74 25.48L56.88 25.19L57.02 24.88L57.17 24.54L57.33 24.17L57.49 23.78L57.66 23.36L66.83 0.11L68.5 0.11L78.67 25.03L78.78 25.29ZM71.05 17.97L66.55 6.65L62.12 17.97L71.05 17.97Z" id="a8mJB3Aln"></path><path d="M112.86 22.54L112.26 11.45L88.38 11.45L87.78 22.54C88.81 22.54 89.38 22.54 89.49 22.54C89.77 20.55 90.13 19.03 90.57 17.75C91.61 14.84 93.52 13.33 96.23 13.33C97.55 13.33 98.11 13.77 98.11 14.76C98.11 16.94 98.11 34.32 98.11 36.5C98.11 38.17 97.75 38.37 94.52 38.37C94.45 38.37 94.1 38.37 93.48 38.37L93.48 40.25L107.16 40.25L107.16 38.37C106.54 38.37 106.19 38.37 106.12 38.37C102.93 38.37 102.57 38.17 102.57 36.5C102.57 34.32 102.57 16.94 102.57 14.76C102.57 13.77 103.13 13.33 104.45 13.33C106.88 13.33 108.83 14.68 109.83 17.08C110.43 18.55 110.83 20.27 111.15 22.54C111.38 22.54 111.95 22.54 112.86 22.54Z" id="a1cY8BIiXO"></path><path d="M143.73 25.29L143.83 25.53L143.93 25.75L144.02 25.96L144.11 26.15L144.2 26.33L144.29 26.49L144.38 26.64L144.46 26.77L144.55 26.89L144.65 27L144.74 27.1L144.85 27.19L144.95 27.26L145.07 27.33L145.19 27.38L145.32 27.43L145.46 27.47L145.61 27.51L145.77 27.53L145.94 27.55L146.13 27.57L146.33 27.58L146.54 27.58L146.77 27.58L147.53 27.58L147.53 29.46L135.17 29.46L135.17 27.58L136.84 27.58L137.02 27.58L137.19 27.58L137.35 27.57L137.51 27.55L137.67 27.54L137.82 27.52L137.96 27.49L138.1 27.47L138.23 27.44L138.35 27.4L138.47 27.36L138.58 27.33L138.68 27.28L138.78 27.24L138.87 27.19L138.95 27.13L139.03 27.08L139.09 27.02L139.15 26.96L139.2 26.9L139.24 26.83L139.27 26.77L139.3 26.69L139.31 26.62L139.32 26.55L139.32 26.52L139.31 26.5L139.31 26.47L139.31 26.44L139.31 26.42L139.3 26.39L139.3 26.35L139.29 26.32L139.28 26.29L139.27 26.25L139.26 26.22L139.25 26.18L139.24 26.14L139.23 26.09L139.21 26.05L139.2 26L139.18 25.95L139.16 25.9L139.14 25.85L139.12 25.79L139.1 25.73L139.08 25.67L139.05 25.61L139.03 25.54L139 25.47L136.84 20.13L126.28 20.13L124.96 23.64L124.93 23.71L124.91 23.79L124.88 23.86L124.85 23.94L124.83 24.01L124.81 24.08L124.79 24.15L124.77 24.22L124.75 24.29L124.73 24.36L124.71 24.43L124.7 24.5L124.68 24.57L124.67 24.63L124.66 24.7L124.65 24.76L124.64 24.83L124.63 24.89L124.62 24.95L124.62 25.01L124.61 25.07L124.61 25.13L124.6 25.19L124.6 25.25L124.6 25.31L124.61 25.49L124.62 25.66L124.65 25.82L124.68 25.98L124.73 26.13L124.79 26.27L124.85 26.4L124.93 26.53L125.02 26.65L125.12 26.76L125.23 26.87L125.35 26.97L125.47 27.06L125.61 27.14L125.76 27.22L125.92 27.29L126.1 27.35L126.28 27.4L126.47 27.45L126.67 27.49L126.88 27.52L127.1 27.55L127.34 27.57L127.58 27.58L127.83 27.58L128.63 27.58L128.63 29.46L118.06 29.46L118.06 27.58L118.62 27.58L118.85 27.58L119.07 27.57L119.28 27.55L119.48 27.53L119.66 27.49L119.84 27.45L120.01 27.39L120.17 27.32L120.32 27.24L120.47 27.14L120.61 27.03L120.75 26.9L120.89 26.76L121.02 26.59L121.16 26.41L121.29 26.21L121.42 25.99L121.56 25.74L121.69 25.48L121.83 25.19L121.98 24.88L122.12 24.54L122.28 24.17L122.44 23.78L122.61 23.36L131.78 0.11L133.45 0.11L143.62 25.03L143.73 25.29ZM136.01 17.97L131.5 6.65L127.07 17.97L136.01 17.97Z" id="e18ARUFa1n"></path><path d="M181.52 40.25L181.52 38.37C181.19 38.37 181 38.37 180.96 38.37C178.41 38.37 178.21 38.25 176.86 36.3C176.3 35.5 173.51 31.5 168.48 24.29C171.66 19.96 173.43 17.56 173.79 17.08C175.98 14.09 177.14 13.33 179.25 13.33C179.29 13.33 179.5 13.33 179.89 13.33L179.89 11.45L168.92 11.45L168.92 13.33C169.5 13.33 169.81 13.33 169.88 13.33C171.79 13.33 172.23 13.81 172.23 14.88C172.23 15.32 172.11 15.6 171.67 16.24C171.39 16.66 169.95 18.74 167.37 22.5C164.18 17.91 162.42 15.35 162.06 14.84C161.78 14.44 161.62 14.05 161.62 13.85C161.62 13.45 162.02 13.33 163.54 13.33C163.64 13.33 164.14 13.33 165.05 13.33L165.05 11.45L152.73 11.45L152.73 13.33C153.14 13.33 153.36 13.33 153.41 13.33C155.36 13.33 155.84 13.53 156.76 14.84C157.28 15.6 159.9 19.39 164.61 26.21C160.74 31.59 158.58 34.58 158.15 35.18C156.56 37.37 155.4 38.41 153.33 38.37C153.29 38.37 153.11 38.37 152.77 38.37L152.77 40.25L164.1 40.25L164.1 38.37C163.5 38.37 163.17 38.37 163.1 38.37C161.5 38.37 160.51 37.65 160.51 36.46C160.51 35.94 160.75 35.3 161.14 34.7C161.45 34.26 163 32.02 165.77 28C169.34 33.05 171.32 35.86 171.71 36.42C172.03 36.9 172.23 37.33 172.23 37.65C172.23 38.25 172.07 38.37 169.56 38.37C169.48 38.37 169.11 38.37 168.44 38.37L168.44 40.25L181.52 40.25Z" id="a1jo9yDKk"></path></defs><g><g><use xlink:href="#b3Y1HBB8Pe" opacity="1" fill="#000000" fill-opacity="1"></use><g><use xlink:href="#b3Y1HBB8Pe" opacity="1" fill-opacity="0" stroke="#000000" stroke-width="0.26" stroke-opacity="0"></use></g></g><g><use xlink:href="#a623oJKBpu" opacity="1" fill="#000000" fill-opacity="1"></use><g><use xlink:href="#a623oJKBpu" opacity="1" fill-opacity="0" stroke="#000000" stroke-width="0.26" stroke-opacity="0"></use></g></g><g><use xlink:href="#a8mJB3Aln" opacity="1" fill="#000000" fill-opacity="1"></use><g><use xlink:href="#a8mJB3Aln" opacity="1" fill-opacity="0" stroke="#000000" stroke-width="0.26" stroke-opacity="0"></use></g></g><g><use xlink:href="#a1cY8BIiXO" opacity="1" fill="#000000" fill-opacity="1"></use><g><use xlink:href="#a1cY8BIiXO" opacity="1" fill-opacity="0" stroke="#000000" stroke-width="0.26" stroke-opacity="0"></use></g></g><g><use xlink:href="#e18ARUFa1n" opacity="1" fill="#000000" fill-opacity="1"></use><g><use xlink:href="#e18ARUFa1n" opacity="1" fill-opacity="0" stroke="#000000" stroke-width="0.26" stroke-opacity="0"></use></g></g><g><use xlink:href="#a1jo9yDKk" opacity="1" fill="#000000" fill-opacity="1"></use><g><use xlink:href="#a1jo9yDKk" opacity="1" fill-opacity="0" stroke="#000000" stroke-width="0.26" stroke-opacity="0"></use></g></g></g></svg>