<?xml version="1.0" encoding="UTF-8" standalone="no"?>
<!DOCTYPE svg PUBLIC "-//W3C//DTD SVG 1.1//EN" "http://www.w3.org/Graphics/SVG/1.1/DTD/svg11.dtd">
<svg version="1.1" xmlns="http://www.w3.org/2000/svg" xmlns:xlink="http://www.w3.org/1999/xlink" preserveAspectRatio="xMidYMid meet" viewBox="-1 -1 186.9999623211141 37.53500646401585" width="183" height="33.54"><defs><path d="M21.77 19.13C21.15 19.13 20.8 19.13 20.73 19.13C18.87 23.15 17.27 24.04 11.95 24.04C11.85 24.04 11.04 24.04 10.94 24.04C9.16 24.04 7.67 23.9 7.33 23.63C7.11 23.49 7.03 23.15 7.03 22.44C7.03 21.83 7.03 18.77 7.03 13.25C10.47 13.25 12.38 13.25 12.77 13.25C15.82 13.25 16.38 13.73 16.86 16.82C16.92 16.82 17.2 16.82 17.72 16.82L17.72 8.19C17.2 8.19 16.92 8.19 16.86 8.19C16.38 11.24 15.78 11.72 12.77 11.72C12.38 11.72 10.47 11.72 7.03 11.72C7.03 6.77 7.03 4.01 7.03 3.46C7.03 2.42 7.26 2.2 8.26 2.2C8.77 2.2 12.78 2.2 13.29 2.2C17.49 2.2 18.31 2.75 18.94 6.1C19.01 6.1 19.32 6.1 19.88 6.1L19.76 0.78L0 0.78C0 1.21 0 1.44 0 1.49C2.75 1.71 3.24 2.2 3.24 4.84C3.24 6.49 3.24 19.71 3.24 21.36C3.24 24.01 2.72 24.53 0 24.71C0 24.76 0 25 0 25.42L20.1 25.42L21.77 19.13Z" id="a4JexlCJIj"></path><path d="M39.99 8.67L34.96 8.67C34.96 9.01 34.96 9.19 34.96 9.23C36.15 9.23 36.75 9.57 36.75 10.16C36.75 10.31 36.71 10.53 36.6 10.79C36.36 11.48 35.16 14.9 32.99 21.07C30.42 15.42 28.99 12.28 28.71 11.65C28.49 11.13 28.34 10.64 28.34 10.24C28.34 9.57 28.89 9.3 30.5 9.23C30.5 9.19 30.5 9.01 30.5 8.67L22.83 8.67C22.83 8.98 22.83 9.16 22.83 9.19C23.8 9.34 24.43 9.75 24.73 10.38C25.34 11.68 30.25 22.04 30.87 23.34C31.13 23.97 31.28 24.42 31.28 24.71C31.28 25.27 30.42 27.62 29.79 28.73C29.27 29.7 28.45 30.41 27.93 30.41C27.7 30.41 27.37 30.33 27 30.15C26.29 29.89 25.66 29.74 25.02 29.74C24.17 29.74 23.42 30.48 23.42 31.38C23.42 32.6 24.61 33.54 26.18 33.54C28.67 33.54 30.46 31.45 32.47 26.09C33.04 24.57 37.63 12.42 38.2 10.91C38.68 9.71 39.09 9.34 39.99 9.23C39.99 9.23 39.99 9.04 39.99 8.67Z" id="i1u9K9EjwA"></path><path d="M49.08 8.34L49.45 8.39L49.81 8.46L50.16 8.55L50.51 8.66L50.84 8.79L51.17 8.93L51.48 9.1L51.78 9.28L52.07 9.47L52.34 9.69L52.6 9.92L52.85 10.16L53.08 10.42L53.26 10.66L53.43 10.9L53.58 11.13L53.72 11.38L53.84 11.63L53.96 11.89L54.07 12.16L54.17 12.45L54.26 12.76L54.34 13.08L54.42 13.43L54.49 13.81L54.56 14.21L54.62 14.64L54.68 15.11L43.22 15.11L43.24 15.57L43.26 16.01L43.29 16.42L43.33 16.81L43.38 17.18L43.43 17.53L43.49 17.87L43.56 18.19L43.64 18.5L43.73 18.8L43.83 19.09L43.94 19.38L44.06 19.67L44.19 19.96L44.34 20.25L44.56 20.64L44.79 21L45.04 21.33L45.3 21.63L45.58 21.91L45.86 22.16L46.16 22.39L46.47 22.59L46.8 22.76L47.14 22.9L47.49 23.02L47.85 23.11L48.23 23.17L48.62 23.21L49.02 23.23L49.49 23.21L49.94 23.17L50.37 23.09L50.78 22.98L51.18 22.84L51.57 22.66L51.95 22.45L52.32 22.2L52.68 21.91L53.03 21.59L53.39 21.22L53.74 20.81L54.09 20.36L54.44 19.86L54.79 19.32L55.39 19.58L55.06 20.36L54.7 21.09L54.31 21.77L53.89 22.4L53.44 22.98L52.97 23.5L52.46 23.98L51.93 24.4L51.37 24.76L50.79 25.08L50.18 25.33L49.54 25.53L48.88 25.68L48.2 25.76L47.5 25.79L46.66 25.75L45.87 25.63L45.13 25.42L44.44 25.13L43.79 24.77L43.2 24.34L42.66 23.83L42.18 23.25L41.76 22.61L41.39 21.9L41.09 21.13L40.85 20.3L40.68 19.4L40.57 18.46L40.54 17.46L40.58 16.39L40.7 15.38L40.9 14.42L41.18 13.51L41.53 12.67L41.95 11.89L42.43 11.17L42.98 10.53L43.59 9.96L44.25 9.47L44.97 9.06L45.74 8.73L46.55 8.49L47.41 8.35L48.32 8.3L48.7 8.31L49.08 8.34ZM44.57 10.68L43.76 12.01L43.29 13.92L50.89 13.92L50.43 11.89L49.73 10.57L48.7 9.85L47.24 9.64L45.72 9.9L44.57 10.68Z" id="dciVjZfKa"></path><path d="M65.94 16.6C65.53 16.36 62.32 14.46 61.92 14.22C60.87 13.62 60.32 12.69 60.32 11.69C60.32 10.16 61.47 9.16 63.18 9.16C65.3 9.16 66.42 10.38 67.28 13.73C67.31 13.73 67.5 13.73 67.83 13.73L67.69 8.67L67.28 8.67C67.23 8.72 67.21 8.74 67.2 8.75C66.87 9.01 66.83 9.04 66.68 9.04C66.46 9.04 66.08 8.97 65.68 8.78C64.89 8.49 64.04 8.34 63.14 8.34C60.09 8.34 58.01 10.2 58.01 12.92C58.01 15 59.2 16.45 62.36 18.27C62.58 18.4 64.31 19.38 64.52 19.5C65.82 20.25 66.46 21.14 66.46 22.29C66.46 23.93 65.27 24.97 63.37 24.97C60.8 24.97 59.5 23.56 58.64 19.76C58.6 19.76 58.4 19.76 58.05 19.76L58.05 25.57C58.34 25.57 58.5 25.57 58.53 25.57C58.79 25.2 58.94 25.12 59.39 25.12C59.79 25.12 60.2 25.2 61.1 25.42C62.14 25.64 63.07 25.79 63.85 25.79C66.68 25.79 69.06 23.63 69.06 21.03C69.06 19.17 68.21 17.94 65.94 16.6Z" id="b1r6XOfrGr"></path><path d="M92.65 7.11L92.42 0.78L71.43 0.78L71.21 7.11C71.74 7.11 72.04 7.11 72.1 7.11C73 3.01 73.85 2.34 78.02 2.34C78.15 2.34 78.82 2.34 80.03 2.34C80.03 13.51 80.03 19.71 80.03 20.95C80.03 24.12 79.62 24.53 76.53 24.71C76.53 24.76 76.53 25 76.53 25.42L87.4 25.42C87.4 25 87.4 24.76 87.4 24.71C84.35 24.57 83.83 24.08 83.83 21.36C83.83 20.1 83.83 13.76 83.83 2.34C85.03 2.34 85.7 2.34 85.84 2.34C90.08 2.34 90.9 3.01 91.75 7.11C91.87 7.11 92.17 7.11 92.65 7.11Z" id="aDVA7RFXp"></path><path d="M101.86 8.3C100.3 8.3 99.22 9.16 97.39 11.8C97.39 11.57 97.39 10.43 97.39 8.37C97.28 8.33 97.22 8.3 97.21 8.3C95.24 9.12 93.9 9.6 91.7 10.31C91.7 10.37 91.7 10.85 91.7 10.91C92.22 10.79 92.56 10.76 93 10.76C93.93 10.76 94.27 11.35 94.27 12.99C94.27 13.92 94.27 21.36 94.27 22.29C94.27 24.16 94.01 24.42 91.63 24.86C91.63 24.9 91.63 25.09 91.63 25.42L100.56 25.42C100.56 25.09 100.56 24.9 100.56 24.86C98.03 24.75 97.39 24.19 97.39 22.07C97.39 21.23 97.39 14.53 97.39 13.7C97.39 12.51 99 10.64 100 10.64C100.22 10.64 100.56 10.83 100.97 11.2C101.56 11.72 101.97 11.95 102.46 11.95C103.35 11.95 103.91 11.31 103.91 10.27C103.91 9.04 103.13 8.3 101.86 8.3Z" id="a72BIeVZYB"></path><path d="M113.03 8.33L113.41 8.38L113.78 8.44L114.14 8.52L114.47 8.61L114.79 8.72L115.09 8.85L115.38 8.99L115.64 9.15L115.89 9.33L116.12 9.52L116.33 9.73L116.53 9.96L116.7 10.2L116.86 10.46L116.95 10.62L117.04 10.79L117.12 10.96L117.19 11.15L117.25 11.34L117.31 11.54L117.36 11.75L117.41 11.97L117.45 12.2L117.48 12.45L117.51 12.71L117.53 12.98L117.55 13.27L117.56 13.58L117.56 13.91L117.57 14.26L117.57 21.51L117.57 21.81L117.58 22.08L117.6 22.32L117.62 22.54L117.65 22.74L117.69 22.92L117.74 23.07L117.8 23.21L117.87 23.32L117.95 23.42L118.05 23.5L118.15 23.56L118.26 23.61L118.39 23.65L118.53 23.67L118.68 23.67L118.79 23.67L118.89 23.66L118.99 23.65L119.09 23.63L119.18 23.61L119.28 23.59L119.38 23.55L119.47 23.51L119.57 23.47L119.67 23.42L119.77 23.36L119.88 23.29L119.98 23.22L120.09 23.14L120.2 23.06L120.32 22.96L120.32 23.93L120.08 24.19L119.86 24.42L119.64 24.63L119.43 24.82L119.22 24.99L119.02 25.14L118.83 25.28L118.63 25.39L118.44 25.49L118.24 25.58L118.05 25.65L117.85 25.7L117.64 25.74L117.43 25.77L117.2 25.79L116.97 25.79L116.7 25.78L116.44 25.76L116.2 25.71L115.98 25.65L115.78 25.56L115.6 25.45L115.43 25.33L115.28 25.17L115.14 25L115.02 24.8L114.92 24.58L114.83 24.33L114.75 24.06L114.68 23.76L114.63 23.43L114.59 23.08L114.17 23.43L113.77 23.75L113.39 24.05L113.01 24.32L112.65 24.56L112.3 24.79L111.97 24.99L111.64 25.16L111.31 25.31L111 25.44L110.68 25.55L110.38 25.64L110.07 25.71L109.77 25.76L109.46 25.78L109.16 25.79L108.73 25.77L108.33 25.72L107.94 25.63L107.57 25.5L107.23 25.34L106.9 25.15L106.61 24.93L106.34 24.68L106.09 24.4L105.88 24.1L105.69 23.77L105.53 23.42L105.41 23.05L105.32 22.66L105.27 22.24L105.25 21.81L105.25 21.58L105.27 21.35L105.3 21.12L105.34 20.89L105.39 20.67L105.46 20.44L105.53 20.22L105.61 20.01L105.7 19.8L105.8 19.6L105.91 19.41L106.03 19.22L106.16 19.04L106.29 18.88L106.44 18.72L106.59 18.57L106.88 18.32L107.15 18.09L107.43 17.87L107.7 17.67L107.99 17.48L108.3 17.29L108.64 17.1L109.02 16.9L109.45 16.69L109.94 16.47L110.49 16.22L111.11 15.96L111.83 15.66L112.63 15.33L113.54 14.96L114.55 14.55L114.55 12.28L114.54 11.92L114.51 11.57L114.45 11.25L114.37 10.95L114.26 10.68L114.14 10.42L113.99 10.19L113.82 9.98L113.63 9.8L113.42 9.64L113.19 9.5L112.94 9.39L112.66 9.31L112.37 9.24L112.06 9.21L111.72 9.19L111.45 9.2L111.18 9.23L110.92 9.28L110.68 9.34L110.44 9.41L110.22 9.51L110.02 9.61L109.83 9.73L109.65 9.86L109.5 10L109.37 10.15L109.25 10.31L109.16 10.48L109.1 10.65L109.06 10.83L109.04 11.02L109.04 11.07L109.05 11.12L109.05 11.17L109.05 11.22L109.05 11.27L109.06 11.33L109.07 11.38L109.07 11.44L109.08 11.49L109.09 11.55L109.1 11.61L109.11 11.67L109.12 11.73L109.13 11.79L109.14 11.85L109.16 11.91L109.16 11.96L109.17 12L109.18 12.05L109.18 12.09L109.19 12.13L109.2 12.17L109.2 12.21L109.21 12.25L109.21 12.29L109.22 12.32L109.22 12.35L109.22 12.39L109.23 12.42L109.23 12.45L109.23 12.48L109.23 12.51L109.22 12.66L109.19 12.81L109.15 12.95L109.09 13.1L109.02 13.23L108.94 13.36L108.84 13.48L108.73 13.59L108.61 13.7L108.48 13.79L108.34 13.87L108.19 13.94L108.04 13.99L107.88 14.04L107.72 14.06L107.56 14.07L107.39 14.06L107.23 14.04L107.08 13.99L106.93 13.94L106.79 13.87L106.66 13.79L106.53 13.69L106.42 13.59L106.32 13.48L106.23 13.35L106.15 13.22L106.08 13.08L106.03 12.93L105.99 12.78L105.96 12.63L105.95 12.47L105.96 12.29L105.98 12.11L106.02 11.93L106.06 11.75L106.12 11.57L106.19 11.38L106.27 11.2L106.37 11.02L106.47 10.84L106.59 10.66L106.71 10.48L106.85 10.31L106.99 10.15L107.15 9.98L107.31 9.83L107.48 9.68L107.68 9.52L107.91 9.37L108.14 9.23L108.39 9.1L108.66 8.98L108.93 8.87L109.22 8.76L109.52 8.67L109.83 8.58L110.15 8.51L110.48 8.45L110.81 8.39L111.16 8.35L111.5 8.32L111.85 8.31L112.21 8.3L112.63 8.31L113.03 8.33ZM109.85 17.82L108.83 19.12L108.52 20.62L108.52 20.77L108.71 21.89L109.21 22.8L109.95 23.41L110.87 23.63L111.5 23.58L112.18 23.42L112.89 23.16L113.58 22.82L114.07 22.47L114.36 22.08L114.51 21.57L114.55 20.84L114.55 15.45L111.71 16.64L109.85 17.82Z" id="f2cN9anRp"></path><path d="M135.19 19.61C133.4 22.22 132.06 23.11 129.94 23.11C126.51 23.11 124.17 20.14 124.17 15.86C124.17 11.98 126.22 9.38 129.23 9.38C130.57 9.38 131.05 9.79 131.43 11.17C131.45 11.25 131.63 11.9 131.65 11.98C131.95 13.06 132.62 13.7 133.44 13.7C134.4 13.7 135.19 12.99 135.19 12.13C135.19 10.05 132.58 8.3 129.45 8.3C127.7 8.3 125.92 8.97 124.43 10.2C122.42 11.87 121.3 14.44 121.3 17.53C121.3 22.33 124.24 25.79 128.37 25.79C129.97 25.79 131.39 25.27 132.65 24.23C133.77 23.34 134.52 22.26 135.71 19.95C135.71 19.95 135.24 19.65 135.19 19.61Z" id="i1ldPydgaE"></path><path d="M154.94 25.42C154.94 25.09 154.94 24.9 154.94 24.86C153.31 24.75 152.15 24.04 150.59 22.15C150.21 21.66 148.31 19.26 144.89 14.93C145.54 14.32 145.9 13.99 145.97 13.92C148.62 11.46 150.92 9.75 152 9.45C152.56 9.3 153.08 9.23 153.71 9.23C153.73 9.23 153.83 9.23 154.01 9.23L154.01 8.67L146.42 8.67C146.42 8.98 146.42 9.16 146.42 9.19C147.87 9.23 148.28 9.38 148.28 9.9C148.28 10.2 147.95 10.72 147.42 11.17C147.08 11.47 145.38 12.98 142.33 15.71L142.33 0.07L142.18 0L137.52 1.34L136.41 1.64C136.41 1.99 136.41 2.19 136.41 2.23C136.89 2.2 137.23 2.16 137.6 2.16C138.83 2.16 139.2 2.64 139.2 4.43C139.2 6.22 139.2 20.58 139.2 22.37C139.2 24.3 139.09 24.42 136.41 24.86C136.41 24.9 136.41 25.09 136.41 25.42L145.12 25.42L145.12 24.86C144.67 24.84 144.42 24.83 144.37 24.83C142.88 24.75 142.33 24.23 142.33 22.93C142.33 22.47 142.33 20.19 142.33 16.08L147.54 23.04C147.6 23.13 147.64 23.18 147.65 23.19C147.72 23.3 147.8 23.41 147.91 23.52C148.21 23.89 148.32 24.12 148.32 24.3C148.32 24.64 147.98 24.86 147.54 24.86C147.49 24.86 147.25 24.86 146.83 24.86L146.83 25.42L154.94 25.42Z" id="azMt7mexz"></path><path d="M163.5 8.34L163.87 8.39L164.23 8.46L164.59 8.55L164.93 8.66L165.26 8.79L165.59 8.93L165.9 9.1L166.2 9.28L166.49 9.47L166.76 9.69L167.03 9.92L167.27 10.16L167.5 10.42L167.68 10.66L167.85 10.9L168 11.13L168.14 11.38L168.27 11.63L168.38 11.89L168.49 12.16L168.59 12.45L168.68 12.76L168.76 13.08L168.84 13.43L168.91 13.81L168.98 14.21L169.04 14.64L169.1 15.11L157.64 15.11L157.66 15.57L157.68 16.01L157.71 16.42L157.75 16.81L157.8 17.18L157.85 17.53L157.91 17.87L157.98 18.19L158.06 18.5L158.15 18.8L158.25 19.09L158.36 19.38L158.48 19.67L158.61 19.96L158.76 20.25L158.98 20.64L159.21 21L159.46 21.33L159.72 21.63L160 21.91L160.28 22.16L160.58 22.39L160.9 22.59L161.22 22.76L161.56 22.9L161.91 23.02L162.28 23.11L162.65 23.17L163.04 23.21L163.45 23.23L163.91 23.21L164.36 23.17L164.79 23.09L165.2 22.98L165.6 22.84L165.99 22.66L166.37 22.45L166.74 22.2L167.1 21.91L167.45 21.59L167.81 21.22L168.16 20.81L168.51 20.36L168.86 19.86L169.22 19.32L169.81 19.58L169.48 20.36L169.12 21.09L168.73 21.77L168.31 22.4L167.86 22.98L167.39 23.5L166.88 23.98L166.35 24.4L165.79 24.76L165.21 25.08L164.6 25.33L163.96 25.53L163.3 25.68L162.62 25.76L161.92 25.79L161.09 25.75L160.3 25.63L159.55 25.42L158.86 25.13L158.21 24.77L157.62 24.34L157.08 23.83L156.6 23.25L156.18 22.61L155.81 21.9L155.51 21.13L155.27 20.3L155.1 19.4L155 18.46L154.96 17.46L155 16.39L155.12 15.38L155.33 14.42L155.6 13.51L155.95 12.67L156.37 11.89L156.85 11.17L157.4 10.53L158.01 9.96L158.67 9.47L159.39 9.06L160.16 8.73L160.97 8.49L161.84 8.35L162.74 8.3L163.12 8.31L163.5 8.34ZM158.99 10.68L158.18 12.01L157.71 13.92L165.31 13.92L164.85 11.89L164.15 10.57L163.12 9.85L161.66 9.64L160.14 9.9L158.99 10.68Z" id="a1V3jcRnG7"></path><path d="M180.95 8.3C179.39 8.3 178.31 9.16 176.49 11.8C176.49 11.57 176.49 10.43 176.49 8.37C176.37 8.33 176.31 8.3 176.3 8.3C174.33 9.12 172.99 9.6 170.79 10.31C170.79 10.37 170.79 10.85 170.79 10.91C171.31 10.79 171.65 10.76 172.09 10.76C173.03 10.76 173.36 11.35 173.36 12.99C173.36 13.92 173.36 21.36 173.36 22.29C173.36 24.16 173.1 24.42 170.72 24.86C170.72 24.9 170.72 25.09 170.72 25.42L179.65 25.42C179.65 25.09 179.65 24.9 179.65 24.86C177.12 24.75 176.49 24.19 176.49 22.07C176.49 21.23 176.49 14.53 176.49 13.7C176.49 12.51 178.09 10.64 179.09 10.64C179.32 10.64 179.65 10.83 180.06 11.2C180.66 11.72 181.06 11.95 181.55 11.95C182.44 11.95 183 11.31 183 10.27C183 9.04 182.22 8.3 180.95 8.3Z" id="apR33Vjp6"></path></defs><g><g><use xlink:href="#a4JexlCJIj" opacity="1" fill="#333333" fill-opacity="1"></use><g><use xlink:href="#a4JexlCJIj" opacity="1" fill-opacity="0" stroke="#000000" stroke-width="0.26" stroke-opacity="0"></use></g></g><g><use xlink:href="#i1u9K9EjwA" opacity="1" fill="#333333" fill-opacity="1"></use><g><use xlink:href="#i1u9K9EjwA" opacity="1" fill-opacity="0" stroke="#000000" stroke-width="0.26" stroke-opacity="0"></use></g></g><g><use xlink:href="#dciVjZfKa" opacity="1" fill="#333333" fill-opacity="1"></use><g><use xlink:href="#dciVjZfKa" opacity="1" fill-opacity="0" stroke="#000000" stroke-width="0.26" stroke-opacity="0"></use></g></g><g><use xlink:href="#b1r6XOfrGr" opacity="1" fill="#333333" fill-opacity="1"></use><g><use xlink:href="#b1r6XOfrGr" opacity="1" fill-opacity="0" stroke="#000000" stroke-width="0.26" stroke-opacity="0"></use></g></g><g><use xlink:href="#aDVA7RFXp" opacity="1" fill="#333333" fill-opacity="1"></use><g><use xlink:href="#aDVA7RFXp" opacity="1" fill-opacity="0" stroke="#000000" stroke-width="0.26" stroke-opacity="0"></use></g></g><g><use xlink:href="#a72BIeVZYB" opacity="1" fill="#333333" fill-opacity="1"></use><g><use xlink:href="#a72BIeVZYB" opacity="1" fill-opacity="0" stroke="#000000" stroke-width="0.26" stroke-opacity="0"></use></g></g><g><use xlink:href="#f2cN9anRp" opacity="1" fill="#333333" fill-opacity="1"></use><g><use xlink:href="#f2cN9anRp" opacity="1" fill-opacity="0" stroke="#000000" stroke-width="0.26" stroke-opacity="0"></use></g></g><g><use xlink:href="#i1ldPydgaE" opacity="1" fill="#333333" fill-opacity="1"></use><g><use xlink:href="#i1ldPydgaE" opacity="1" fill-opacity="0" stroke="#000000" stroke-width="0.26" stroke-opacity="0"></use></g></g><g><use xlink:href="#azMt7mexz" opacity="1" fill="#333333" fill-opacity="1"></use><g><use xlink:href="#azMt7mexz" opacity="1" fill-opacity="0" stroke="#000000" stroke-width="0.26" stroke-opacity="0"></use></g></g><g><use xlink:href="#a1V3jcRnG7" opacity="1" fill="#333333" fill-opacity="1"></use><g><use xlink:href="#a1V3jcRnG7" opacity="1" fill-opacity="0" stroke="#000000" stroke-width="0.26" stroke-opacity="0"></use></g></g><g><use xlink:href="#apR33Vjp6" opacity="1" fill="#333333" fill-opacity="1"></use><g><use xlink:href="#apR33Vjp6" opacity="1" fill-opacity="0" stroke="#000000" stroke-width="0.26" stroke-opacity="0"></use></g></g></g></svg>