<?xml version="1.0" encoding="UTF-8" standalone="no"?>
<!-- Created with Inkscape (http://www.inkscape.org/) -->

<svg
   xmlns:dc="http://purl.org/dc/elements/1.1/"
   xmlns:cc="http://creativecommons.org/ns#"
   xmlns:rdf="http://www.w3.org/1999/02/22-rdf-syntax-ns#"
   xmlns:svg="http://www.w3.org/2000/svg"
   xmlns="http://www.w3.org/2000/svg"
   xmlns:sodipodi="http://sodipodi.sourceforge.net/DTD/sodipodi-0.dtd"
   xmlns:inkscape="http://www.inkscape.org/namespaces/inkscape"
   width="183.55865"
   height="81.03286"
   viewBox="0 0 48.566559 21.439943"
   version="1.1"
   id="svg8"
   inkscape:version="0.92.3 (2405546, 2018-03-11)"
   sodipodi:docname="diatax.svg">
  <defs
     id="defs2" />
  <sodipodi:namedview
     id="base"
     pagecolor="#ffffff"
     bordercolor="#666666"
     borderopacity="1.0"
     inkscape:pageopacity="0.0"
     inkscape:pageshadow="2"
     inkscape:zoom="3.959798"
     inkscape:cx="96.978929"
     inkscape:cy="35.64329"
     inkscape:document-units="mm"
     inkscape:current-layer="g965"
     showgrid="false"
     showguides="true"
     inkscape:guide-bbox="true"
     inkscape:window-width="1920"
     inkscape:window-height="1015"
     inkscape:window-x="0"
     inkscape:window-y="0"
     inkscape:window-maximized="1"
     fit-margin-top="0"
     fit-margin-left="0"
     fit-margin-right="0"
     fit-margin-bottom="0"
     units="px" />
  <metadata
     id="metadata5">
    <rdf:RDF>
      <cc:Work
         rdf:about="">
        <dc:format>image/svg+xml</dc:format>
        <dc:type
           rdf:resource="http://purl.org/dc/dcmitype/StillImage" />
        <dc:title></dc:title>
      </cc:Work>
    </rdf:RDF>
  </metadata>
  <g
     inkscape:label="Capa 1"
     inkscape:groupmode="layer"
     id="layer1"
     transform="translate(-55.303061,-60.188118)">
    <g
       id="g965">
      <g
         transform="translate(0.15646312)"
         id="g859">
        <g
           id="text817"
           style="font-style:normal;font-weight:normal;font-size:10.58333302px;line-height:1.25;font-family:sans-serif;letter-spacing:0px;word-spacing:0px;fill:#000000;fill-opacity:1;stroke:none;stroke-width:0.26458332"
           aria-label="D">
          <path
             id="path922"
             style="font-style:normal;font-variant:normal;font-weight:normal;font-stretch:normal;font-family:'TeX Gyre Schola';-inkscape-font-specification:'TeX Gyre Schola';stroke-width:0.26458332"
             d="m 62.978769,63.966368 c 0,-1.42875 -0.529166,-2.6035 -1.502833,-3.2385 -0.582083,-0.370416 -1.36525,-0.53975 -2.57175,-0.53975 h -3.3655 v 0.497417 h 0.201084 c 0.846666,0 0.941916,0.05292 0.941916,0.497417 v 5.651499 c 0,0.4445 -0.09525,0.497417 -0.941916,0.497417 h -0.201084 v 0.497417 h 3.556 c 2.6035,0 3.884083,-1.386417 3.884083,-3.862917 z m -1.397,0.04233 c 0,2.370667 -0.687916,3.323167 -2.391833,3.323167 h -0.719667 c -0.529166,0 -0.60325,-0.0635 -0.60325,-0.582083 v -5.471583 c 0,-0.518584 0.07408,-0.592667 0.60325,-0.592667 h 0.550334 c 1.80975,0 2.561166,0.98425 2.561166,3.323166 z"
             inkscape:connector-curvature="0" />
        </g>
        <g
           id="text821"
           style="font-style:normal;font-weight:normal;font-size:10.58333302px;line-height:1.25;font-family:sans-serif;letter-spacing:0px;word-spacing:0px;fill:#000000;fill-opacity:1;stroke:none;stroke-width:0.26458332"
           aria-label="I">
          <path
             id="path925"
             style="font-style:normal;font-variant:normal;font-weight:normal;font-stretch:normal;font-family:'TeX Gyre Schola';-inkscape-font-specification:'TeX Gyre Schola';stroke-width:0.26458332"
             d="m 67.861648,70.84053 v -0.497416 h -0.211667 c -0.846666,0 -0.941916,-0.05292 -0.941916,-0.497417 v -5.6515 c 0,-0.4445 0.09525,-0.497416 0.941916,-0.497416 h 0.211667 v -0.497417 h -3.503083 v 0.497417 h 0.211666 c 0.85725,0 0.9525,0.05292 0.9525,0.497416 v 5.6515 c 0,0.4445 -0.09525,0.497417 -0.9525,0.497417 h -0.211666 v 0.497416 z"
             inkscape:connector-curvature="0" />
        </g>
        <g
           id="text825"
           style="font-style:normal;font-weight:normal;font-size:10.58333302px;line-height:1.25;font-family:sans-serif;letter-spacing:0px;word-spacing:0px;fill:#000000;fill-opacity:1;stroke:none;stroke-width:0.26458332"
           aria-label="A">
          <path
             id="path928"
             style="font-style:normal;font-variant:normal;font-weight:normal;font-stretch:normal;font-family:'TeX Gyre Schola';-inkscape-font-specification:'TeX Gyre Schola';stroke-width:0.26458332"
             d="m 77.06252,67.977455 v -0.497417 h -0.201084 c -0.529166,0 -0.592666,-0.08467 -0.836083,-0.677333 l -2.69875,-6.614583 h -0.4445 l -2.434166,6.170083 c -0.381,0.963083 -0.529167,1.121833 -1.058334,1.121833 h -0.148166 v 0.497417 h 2.804583 v -0.497417 h -0.211667 c -0.5715,0 -0.85725,-0.201083 -0.85725,-0.603249 0,-0.127 0.03175,-0.275167 0.09525,-0.4445 l 0.34925,-0.931334 h 2.804583 l 0.5715,1.418167 c 0.0635,0.15875 0.08467,0.232833 0.08467,0.28575 0,0.169333 -0.264583,0.275166 -0.656167,0.275166 h -0.4445 v 0.497417 z m -3.058584,-3.048 H 71.63327 l 1.17475,-3.005666 z"
             inkscape:connector-curvature="0" />
        </g>
        <g
           id="text829"
           style="font-style:normal;font-weight:normal;font-size:10.58333302px;line-height:1.25;font-family:sans-serif;letter-spacing:0px;word-spacing:0px;fill:#000000;fill-opacity:1;stroke:none;stroke-width:0.26458332"
           aria-label="T">
          <path
             id="path931"
             style="font-style:normal;font-variant:normal;font-weight:normal;font-stretch:normal;font-family:'TeX Gyre Schola';-inkscape-font-specification:'TeX Gyre Schola';stroke-width:0.26458332"
             d="m 85.099226,66.141531 -0.15875,-2.942167 H 78.60106 l -0.15875,2.942167 h 0.455083 c 0.07408,-0.529167 0.169333,-0.931334 0.28575,-1.27 0.275166,-0.772584 0.783166,-1.17475 1.502833,-1.17475 0.34925,0 0.497417,0.116416 0.497417,0.381 v 5.767916 c 0,0.4445 -0.09525,0.497417 -0.9525,0.497417 h -0.275167 v 0.497416 h 3.630083 v -0.497416 h -0.275166 c -0.846667,0 -0.941917,-0.05292 -0.941917,-0.497417 v -5.767916 c 0,-0.264584 0.148167,-0.381 0.497417,-0.381 0.645583,0 1.164166,0.359833 1.42875,0.994833 0.15875,0.391583 0.264583,0.846667 0.34925,1.449917 z"
             inkscape:connector-curvature="0" />
        </g>
        <g
           id="text833"
           style="font-style:normal;font-weight:normal;font-size:10.58333302px;line-height:1.25;font-family:sans-serif;letter-spacing:0px;word-spacing:0px;fill:#000000;fill-opacity:1;stroke:none;stroke-width:0.26458332"
           aria-label="A">
          <path
             id="path934"
             style="font-style:normal;font-variant:normal;font-weight:normal;font-stretch:normal;font-family:'TeX Gyre Schola';-inkscape-font-specification:'TeX Gyre Schola';stroke-width:0.26458332"
             d="m 94.300107,67.977455 v -0.497417 h -0.201084 c -0.529166,0 -0.592666,-0.08467 -0.836083,-0.677333 l -2.69875,-6.614583 h -0.4445 l -2.434167,6.170083 c -0.381,0.963083 -0.529166,1.121833 -1.058333,1.121833 h -0.148166 v 0.497417 h 2.804583 V 67.480038 H 89.07194 c -0.5715,0 -0.85725,-0.201083 -0.85725,-0.603249 0,-0.127 0.03175,-0.275167 0.09525,-0.4445 l 0.34925,-0.931334 h 2.804583 l 0.5715,1.418167 c 0.0635,0.15875 0.08467,0.232833 0.08467,0.28575 0,0.169333 -0.264583,0.275166 -0.656167,0.275166 h -0.4445 v 0.497417 z m -3.058584,-3.048 h -2.370666 l 1.17475,-3.005666 z"
             inkscape:connector-curvature="0" />
        </g>
        <g
           id="text837"
           style="font-style:normal;font-weight:normal;font-size:10.58333302px;line-height:1.25;font-family:sans-serif;letter-spacing:0px;word-spacing:0px;fill:#000000;fill-opacity:1;stroke:none;stroke-width:0.26458332"
           aria-label="X">
          <path
             id="path937"
             style="font-style:normal;font-variant:normal;font-weight:normal;font-stretch:normal;font-family:'TeX Gyre Schola';-inkscape-font-specification:'TeX Gyre Schola';stroke-width:0.26458332"
             d="m 103.32107,70.84053 v -0.497416 h -0.14817 c -0.67733,0 -0.73025,-0.03175 -1.09008,-0.550334 l -2.222503,-3.185583 1.407583,-1.915583 c 0.58208,-0.79375 0.889,-0.994833 1.44992,-0.994833 h 0.16933 v -0.497417 h -2.910416 v 0.497417 h 0.253996 c 0.508,0 0.62442,0.127 0.62442,0.41275 0,0.116416 -0.0317,0.1905 -0.14817,0.359833 l -1.142996,1.661583 -1.407583,-2.032 c -0.07408,-0.105833 -0.116417,-0.211666 -0.116417,-0.264583 0,-0.105833 0.105833,-0.137583 0.508,-0.137583 h 0.402166 v -0.497417 h -3.270249 v 0.497417 h 0.179916 c 0.518584,0 0.645584,0.05292 0.889,0.402166 l 2.084917,3.01625 -1.7145,2.38125 c -0.423333,0.582083 -0.73025,0.85725 -1.280583,0.846667 h -0.148167 v 0.497416 h 3.005666 v -0.497416 h -0.264583 c -0.423333,0 -0.687916,-0.1905 -0.687916,-0.508 0,-0.137584 0.0635,-0.306917 0.169333,-0.465667 l 1.227666,-1.778 1.57692,2.233083 c 0.0847,0.127 0.13758,0.243417 0.13758,0.328084 0,0.15875 -0.0423,0.1905 -0.70908,0.1905 h -0.296336 v 0.497416 z"
             inkscape:connector-curvature="0" />
        </g>
      </g>
      <g
         id="text845"
         style="font-style:normal;font-weight:normal;font-size:10.58333302px;line-height:1.25;font-family:sans-serif;letter-spacing:0px;word-spacing:0px;fill:#333333;fill-opacity:1;stroke:none;stroke-width:0.26458332"
         aria-label="EyesTracker">
        <path
           id="path899"
           style="font-style:normal;font-variant:normal;font-weight:normal;font-stretch:normal;font-size:9.87777805px;font-family:'TeX Gyre Termes';-inkscape-font-specification:'TeX Gyre Termes';fill:#333333;fill-opacity:1;stroke-width:0.26458332"
           d="M 61.081558,77.805356 H 60.80498 c -0.493889,1.0668 -0.918633,1.303867 -2.331155,1.303867 h -0.2667 c -0.474134,0 -0.869245,-0.03951 -0.958145,-0.108655 -0.05927,-0.03951 -0.07902,-0.128412 -0.07902,-0.316089 v -2.439811 h 1.521178 c 0.809978,0 0.958144,0.128411 1.086555,0.948266 H 60.00488 V 74.90129 h -0.227189 c -0.128411,0.809977 -0.286455,0.938389 -1.086555,0.938389 h -1.521178 v -2.192867 c 0,-0.276578 0.05927,-0.335845 0.325967,-0.335845 h 1.3335 c 1.116189,0 1.3335,0.148167 1.501422,1.037167 h 0.246944 l -0.02963,-1.412522 h -5.2451 v 0.187678 c 0.730955,0.05927 0.859367,0.187677 0.859367,0.889 v 4.385733 c 0,0.701322 -0.138289,0.839611 -0.859367,0.889 v 0.187678 h 5.334 z"
           inkscape:connector-curvature="0" />
        <path
           id="path901"
           style="font-style:normal;font-variant:normal;font-weight:normal;font-stretch:normal;font-size:9.87777805px;font-family:'TeX Gyre Termes';-inkscape-font-specification:'TeX Gyre Termes';fill:#333333;fill-opacity:1;stroke-width:0.26458332"
           d="m 65.915033,75.177867 v -0.148166 h -1.3335 v 0.148166 c 0.316089,0 0.474133,0.0889 0.474133,0.246945 0,0.03951 -0.0099,0.09878 -0.03951,0.167922 l -0.958144,2.726267 -1.135945,-2.499078 c -0.05927,-0.138289 -0.09878,-0.2667 -0.09878,-0.375356 0,-0.1778 0.148167,-0.246944 0.572911,-0.2667 v -0.148166 h -2.034822 v 0.138289 c 0.256822,0.03951 0.424745,0.148166 0.503767,0.316089 l 1.629833,3.437466 c 0.06914,0.167923 0.108656,0.286456 0.108656,0.365478 0,0.148167 -0.227189,0.770467 -0.395111,1.0668 -0.138289,0.256822 -0.3556,0.4445 -0.493889,0.4445 -0.05927,0 -0.148167,-0.01975 -0.246945,-0.06914 -0.187677,-0.06915 -0.3556,-0.108656 -0.523522,-0.108656 -0.227189,0 -0.424744,0.197556 -0.424744,0.434622 0,0.325967 0.316089,0.572912 0.730955,0.572912 0.661811,0 1.135945,-0.553156 1.669345,-1.975556 l 1.521177,-4.030134 c 0.128412,-0.316088 0.237067,-0.414866 0.474134,-0.4445 z"
           inkscape:connector-curvature="0" />
        <path
           id="path903"
           style="font-style:normal;font-variant:normal;font-weight:normal;font-stretch:normal;font-size:9.87777805px;font-family:'TeX Gyre Termes';-inkscape-font-specification:'TeX Gyre Termes';fill:#333333;fill-opacity:1;stroke-width:0.26458332"
           d="m 70.002889,77.92389 -0.158044,-0.06915 c -0.474133,0.750711 -0.898878,1.037167 -1.531056,1.037167 -0.543277,0 -0.958144,-0.256822 -1.2446,-0.790222 -0.197555,-0.385234 -0.276577,-0.730956 -0.296333,-1.363134 h 3.042356 c -0.07902,-0.642055 -0.1778,-0.928511 -0.424745,-1.2446 -0.296333,-0.3556 -0.750711,-0.563033 -1.264355,-0.563033 -1.224845,0 -2.064456,0.987778 -2.064456,2.429933 0,1.363134 0.7112,2.212623 1.847145,2.212623 0.948266,0 1.679222,-0.582789 2.094088,-1.649589 z m -1.195211,-1.501422 h -2.015066 c 0.108655,-0.780345 0.4445,-1.135945 1.047044,-1.135945 0.602545,0 0.839611,0.276578 0.968022,1.135945 z"
           inkscape:connector-curvature="0" />
        <path
           id="path905"
           style="font-style:normal;font-variant:normal;font-weight:normal;font-stretch:normal;font-size:9.87777805px;font-family:'TeX Gyre Termes';-inkscape-font-specification:'TeX Gyre Termes';fill:#333333;fill-opacity:1;stroke-width:0.26458332"
           d="m 73.631583,78.309123 c 0,-0.493889 -0.227189,-0.819855 -0.829733,-1.175455 l -1.0668,-0.632178 c -0.276578,-0.158045 -0.424744,-0.404989 -0.424744,-0.671689 0,-0.404989 0.306211,-0.671689 0.760588,-0.671689 0.563034,0 0.859367,0.325967 1.086556,1.214967 h 0.148167 l -0.03951,-1.343378 H 73.15745 l -0.01976,0.01976 c -0.0889,0.06914 -0.09878,0.07902 -0.138288,0.07902 -0.05927,0 -0.158045,-0.01976 -0.2667,-0.06914 -0.207434,-0.07902 -0.434623,-0.118533 -0.671689,-0.118533 -0.809978,0 -1.363134,0.493889 -1.363134,1.214967 0,0.553155 0.316089,0.938388 1.1557,1.4224 l 0.572911,0.325966 c 0.345723,0.197556 0.513645,0.434622 0.513645,0.740834 0,0.434622 -0.316089,0.7112 -0.819856,0.7112 -0.681566,0 -1.027289,-0.375356 -1.254477,-1.382889 h -0.158045 v 1.540933 h 0.128411 c 0.06914,-0.09878 0.108656,-0.118533 0.227189,-0.118533 0.108656,0 0.217311,0.01976 0.454378,0.07902 0.276578,0.05927 0.523522,0.09878 0.730955,0.09878 0.750712,0 1.382889,-0.572911 1.382889,-1.264356 z"
           inkscape:connector-curvature="0" />
        <path
           id="path907"
           style="font-style:normal;font-variant:normal;font-weight:normal;font-stretch:normal;font-size:9.87777805px;font-family:'TeX Gyre Termes';-inkscape-font-specification:'TeX Gyre Termes';fill:#333333;fill-opacity:1;stroke-width:0.26458332"
           d="m 79.890853,74.614834 -0.05927,-1.679222 H 74.26052 l -0.05927,1.679222 h 0.237067 c 0.237066,-1.086555 0.464255,-1.264355 1.570567,-1.264355 h 0.5334 v 4.938889 c 0,0.839611 -0.108656,0.948266 -0.928512,0.997655 v 0.187678 h 2.884312 v -0.187678 c -0.809978,-0.03951 -0.948267,-0.167922 -0.948267,-0.889 v -5.047544 h 0.5334 c 1.126067,0 1.343378,0.1778 1.570567,1.264355 z"
           inkscape:connector-curvature="0" />
        <path
           id="path909"
           style="font-style:normal;font-variant:normal;font-weight:normal;font-stretch:normal;font-size:9.87777805px;font-family:'TeX Gyre Termes';-inkscape-font-specification:'TeX Gyre Termes';fill:#333333;fill-opacity:1;stroke-width:0.26458332"
           d="m 82.879345,75.454445 c 0,-0.325966 -0.207433,-0.523522 -0.543278,-0.523522 -0.414866,0 -0.701322,0.227189 -1.185333,0.928511 v -0.908755 l -0.04939,-0.01976 c -0.523522,0.217311 -0.879122,0.345722 -1.461911,0.5334 v 0.158044 c 0.138289,-0.02963 0.227189,-0.03951 0.345722,-0.03951 0.246945,0 0.335845,0.158045 0.335845,0.592667 v 2.469445 c 0,0.493888 -0.06914,0.563033 -0.701322,0.681566 v 0.148167 h 2.370666 v -0.148167 c -0.671689,-0.02963 -0.839611,-0.1778 -0.839611,-0.740833 v -2.2225 c 0,-0.316089 0.424745,-0.809978 0.691445,-0.809978 0.05927,0 0.148166,0.04939 0.256822,0.148167 0.158044,0.138289 0.2667,0.197555 0.395111,0.197555 0.237067,0 0.385233,-0.167922 0.385233,-0.4445 z"
           inkscape:connector-curvature="0" />
        <path
           id="path911"
           style="font-style:normal;font-variant:normal;font-weight:normal;font-stretch:normal;font-size:9.87777805px;font-family:'TeX Gyre Termes';-inkscape-font-specification:'TeX Gyre Termes';fill:#333333;fill-opacity:1;stroke-width:0.26458332"
           d="m 87.23529,79.07959 v -0.256822 c -0.167922,0.138288 -0.286455,0.187677 -0.434622,0.187677 -0.227189,0 -0.296333,-0.138289 -0.296333,-0.572911 v -1.926166 c 0,-0.503767 -0.04939,-0.780345 -0.187678,-1.007534 -0.207434,-0.375355 -0.632178,-0.572911 -1.234722,-0.572911 -0.503767,0 -0.9779,0.138289 -1.254478,0.365478 -0.246945,0.207433 -0.404989,0.493889 -0.404989,0.740833 0,0.227189 0.187678,0.424745 0.424744,0.424745 0.237067,0 0.4445,-0.197556 0.4445,-0.414867 0,-0.03951 -0.0099,-0.0889 -0.01976,-0.158045 -0.01976,-0.0889 -0.02963,-0.167922 -0.02963,-0.237066 0,-0.2667 0.316089,-0.484011 0.7112,-0.484011 0.484012,0 0.750712,0.286455 0.750712,0.819855 v 0.602545 c -1.521178,0.612422 -1.6891,0.691444 -2.113845,1.0668 -0.217311,0.197555 -0.3556,0.5334 -0.3556,0.859366 0,0.6223 0.424745,1.056923 1.037167,1.056923 0.434622,0 0.839611,-0.207434 1.442155,-0.721078 0.04939,0.523522 0.227189,0.721078 0.632178,0.721078 0.335845,0 0.543278,-0.118534 0.889,-0.493889 z m -1.531055,-0.819856 c 0,0.306211 -0.04939,0.395111 -0.256823,0.523522 -0.237066,0.138289 -0.513644,0.217312 -0.721077,0.217312 -0.345723,0 -0.6223,-0.335845 -0.6223,-0.760589 v -0.03951 c 0,-0.582789 0.404988,-0.938389 1.6002,-1.373012 z"
           inkscape:connector-curvature="0" />
        <path
           id="path913"
           style="font-style:normal;font-variant:normal;font-weight:normal;font-stretch:normal;font-size:9.87777805px;font-family:'TeX Gyre Termes';-inkscape-font-specification:'TeX Gyre Termes';fill:#333333;fill-opacity:1;stroke-width:0.26458332"
           d="m 91.318363,78.022668 -0.138289,-0.0889 c -0.474133,0.691444 -0.829733,0.928511 -1.392767,0.928511 -0.908755,0 -1.531055,-0.790223 -1.531055,-1.926167 0,-1.027289 0.543277,-1.718733 1.343377,-1.718733 0.3556,0 0.484012,0.108655 0.582789,0.474133 l 0.05927,0.217311 c 0.07902,0.286456 0.256822,0.454378 0.474133,0.454378 0.256823,0 0.464256,-0.187678 0.464256,-0.414867 0,-0.553155 -0.691445,-1.017411 -1.521178,-1.017411 -0.464255,0 -0.938389,0.1778 -1.3335,0.503767 -0.5334,0.4445 -0.829733,1.126066 -0.829733,1.945922 0,1.274233 0.780344,2.192867 1.876778,2.192867 0.424744,0 0.8001,-0.138289 1.135944,-0.414867 0.296333,-0.237067 0.493889,-0.523522 0.809978,-1.135944 z"
           inkscape:connector-curvature="0" />
        <path
           id="path915"
           style="font-style:normal;font-variant:normal;font-weight:normal;font-stretch:normal;font-size:9.87777805px;font-family:'TeX Gyre Termes';-inkscape-font-specification:'TeX Gyre Termes';fill:#333333;fill-opacity:1;stroke-width:0.26458332"
           d="m 96.423478,79.474701 v -0.148167 c -0.434623,-0.02963 -0.740834,-0.217311 -1.1557,-0.721078 l -1.5113,-1.916288 0.286455,-0.2667 c 0.701322,-0.651934 1.313745,-1.106312 1.6002,-1.185334 0.148167,-0.03951 0.286456,-0.05927 0.454378,-0.05927 h 0.07902 v -0.148166 h -2.015067 v 0.138289 c 0.385234,0.0099 0.493889,0.04939 0.493889,0.187677 0,0.07902 -0.0889,0.217312 -0.227189,0.335845 l -1.353255,1.205089 v -4.148667 l -0.03951,-0.01976 -1.234722,0.3556 -0.296334,0.07902 v 0.158044 c 0.128411,-0.0099 0.217311,-0.01976 0.316089,-0.01976 0.325967,0 0.424745,0.128411 0.424745,0.602544 v 4.761089 c 0,0.513645 -0.02963,0.543278 -0.740834,0.661811 v 0.148167 h 2.3114 v -0.148167 l -0.197555,-0.0099 C 93.223077,79.296869 93.07491,79.158575 93.07491,78.812853 v -1.817511 l 1.382889,1.847144 0.02963,0.03951 c 0.01976,0.02963 0.03951,0.05927 0.06915,0.0889 0.07902,0.09878 0.108655,0.158045 0.108655,0.207434 0,0.0889 -0.0889,0.148166 -0.207433,0.148166 h -0.187678 v 0.148167 z"
           inkscape:connector-curvature="0" />
        <path
           id="path917"
           style="font-style:normal;font-variant:normal;font-weight:normal;font-stretch:normal;font-size:9.87777805px;font-family:'TeX Gyre Termes';-inkscape-font-specification:'TeX Gyre Termes';fill:#333333;fill-opacity:1;stroke-width:0.26458332"
           d="m 100.36934,77.92389 -0.15804,-0.06915 c -0.474136,0.750711 -0.898881,1.037167 -1.531058,1.037167 -0.543278,0 -0.958145,-0.256822 -1.2446,-0.790222 -0.197556,-0.385234 -0.276578,-0.730956 -0.296334,-1.363134 h 3.042352 c -0.079,-0.642055 -0.1778,-0.928511 -0.424741,-1.2446 -0.296333,-0.3556 -0.750711,-0.563033 -1.264355,-0.563033 -1.224845,0 -2.064456,0.987778 -2.064456,2.429933 0,1.363134 0.7112,2.212623 1.847145,2.212623 0.948266,0 1.679222,-0.582789 2.094087,-1.649589 z m -1.195209,-1.501422 h -2.015067 c 0.108655,-0.780345 0.4445,-1.135945 1.047044,-1.135945 0.602545,0 0.839611,0.276578 0.968023,1.135945 z"
           inkscape:connector-curvature="0" />
        <path
           id="path919"
           style="font-style:normal;font-variant:normal;font-weight:normal;font-stretch:normal;font-size:9.87777805px;font-family:'TeX Gyre Termes';-inkscape-font-specification:'TeX Gyre Termes';fill:#333333;fill-opacity:1;stroke-width:0.26458332"
           d="m 103.86962,75.454445 c 0,-0.325966 -0.20743,-0.523522 -0.54328,-0.523522 -0.41486,0 -0.70132,0.227189 -1.18533,0.928511 v -0.908755 l -0.0494,-0.01976 c -0.52352,0.217311 -0.87912,0.345722 -1.46191,0.5334 v 0.158044 c 0.13829,-0.02963 0.22719,-0.03951 0.34572,-0.03951 0.24695,0 0.33585,0.158045 0.33585,0.592667 v 2.469445 c 0,0.493888 -0.0691,0.563033 -0.70133,0.681566 v 0.148167 h 2.37067 v -0.148167 c -0.67169,-0.02963 -0.83961,-0.1778 -0.83961,-0.740833 v -2.2225 c 0,-0.316089 0.42474,-0.809978 0.69144,-0.809978 0.0593,0 0.14817,0.04939 0.25683,0.148167 0.15804,0.138289 0.2667,0.197555 0.39511,0.197555 0.23706,0 0.38523,-0.167922 0.38523,-0.4445 z"
           inkscape:connector-curvature="0" />
      </g>
    </g>
  </g>
</svg>
